Coordinates
version=1
nRows=12
nColumns=63
inDegrees=yes

Units are S.I. units (second, meters, Newtons, ...)
If the header above contains a line with 'inDegrees', this indicates whether rotational values are in degrees (yes) or radians (no).

endheader
time	pelvis_tilt	pelvis_list	pelvis_rotation	pelvis_tx	pelvis_ty	pelvis_tz	hip_flexion_r	hip_adduction_r	hip_rotation_r	knee_angle_r	knee_angle_r_beta	ankle_angle_r	subtalar_angle_r	mtp_angle_r	hip_flexion_l	hip_adduction_l	hip_rotation_l	knee_angle_l	knee_angle_l_beta	ankle_angle_l	subtalar_angle_l	mtp_angle_l	L5_S1_Flex_Ext	L5_S1_Lat_Bending	L5_S1_axial_rotation	L4_L5_Flex_Ext	L4_L5_Lat_Bending	L4_L5_axial_rotation	L3_L4_Flex_Ext	L3_L4_Lat_Bending	L3_L4_axial_rotation	L2_L3_Flex_Ext	L2_L3_Lat_Bending	L2_L3_axial_rotation	L1_L2_Flex_Ext	L1_L2_Lat_Bending	L1_L2_axial_rotation	L1_T12_Flex_Ext	L1_T12_Lat_Bending	L1_T12_axial_rotation	Abs_r3	Abs_r2	Abs_r1	Abs_t1	Abs_t2	neck_flexion	neck_bending	neck_rotation	arm_flex_r	arm_add_r	arm_rot_r	elbow_flex_r	pro_sup_r	wrist_flex_r	wrist_dev_r	arm_flex_l	arm_add_l	arm_rot_l	elbow_flex_l	pro_sup_l	wrist_flex_l	wrist_dev_l
4.866667	-4.294702	13.742855	86.306235	0.180544	0.826711	0.558267	-8.017320	-1.624381	16.134475	12.231184	0.213474	31.507856	-14.114493	0.000000	-9.419837	2.185736	-1.992223	10.016125	0.174814	28.222117	3.127887	0.000000	-1.034465	-1.230627	10.305484	-1.921105	-1.636734	10.949577	-1.699522	-2.992146	10.949577	-1.182290	-2.992146	9.017298	-0.960604	-2.509494	8.373206	-0.591093	-1.906241	7.729113	-7.389079	-13.921097	57.316010	0.000000	0.000000	9.944254	18.515931	-44.859096	-18.345954	-54.388530	-112.373894	149.657278	60.621964	-7.125686	13.062589	115.102162	48.648967	147.512907	0.035915	0.521016	-69.943574	-24.723943
4.883333	-4.504602	13.712741	86.360810	0.181224	0.826464	0.557977	-8.064886	-1.785668	16.277795	12.090148	0.211013	31.540425	-14.326774	0.000000	-9.396026	2.338238	-2.057650	10.035552	0.175153	28.321421	3.314748	0.000000	-1.037437	-1.263128	10.354834	-1.926624	-1.679961	11.002011	-1.704405	-3.071170	11.002011	-1.185687	-3.071170	9.060480	-0.963364	-2.575771	8.413303	-0.592791	-1.956586	7.766126	-7.410307	-14.288759	57.590481	0.000000	0.000000	9.855659	18.512319	-44.860816	-18.630803	-54.458709	-112.794032	149.680000	60.401896	-6.922139	12.401904	115.159181	48.531221	147.423537	0.035802	0.520574	-69.943786	-24.723644
4.900000	-4.670064	13.710506	86.399651	0.181740	0.826289	0.557844	-8.104176	-1.917225	16.348910	12.007917	0.209578	31.566385	-14.474495	0.000000	-9.393648	2.473605	-1.974687	10.060897	0.175596	28.379930	3.272505	0.000000	-1.043475	-1.287306	10.405103	-1.937837	-1.712117	11.055422	-1.714325	-3.129956	11.055422	-1.192587	-3.129956	9.104465	-0.968971	-2.625074	8.454146	-0.596241	-1.994037	7.803827	-7.453435	-14.562263	57.870062	0.000000	0.000000	9.773163	18.509774	-44.862342	-18.924728	-54.579320	-113.251187	149.701401	60.245884	-6.669439	11.798380	115.175413	48.432708	147.359708	0.035701	0.520474	-69.943948	-24.723436
4.916667	-4.724859	13.779798	86.394636	0.181961	0.826259	0.557873	-8.198475	-1.971492	16.351533	11.951571	0.208594	31.555976	-14.528512	0.000000	-9.466453	2.536442	-1.804768	10.093354	0.176162	28.430250	3.066985	0.000000	-1.050523	-1.286825	10.480453	-1.950927	-1.711477	11.135482	-1.725905	-3.128786	11.135482	-1.200643	-3.128786	9.170397	-0.975516	-2.624093	8.515368	-0.600269	-1.993292	7.860340	-7.503783	-14.556821	58.289137	0.000000	0.000000	9.634076	18.445517	-44.863912	-19.577035	-54.701935	-114.114754	149.719518	59.982416	-6.356897	11.337680	115.115324	48.377589	147.214497	0.035616	0.520792	-69.944068	-24.723300
4.933333	-4.818634	13.848427	86.445867	0.182137	0.826255	0.557969	-8.273008	-2.057515	16.248469	11.935403	0.208312	31.563528	-14.549321	0.000000	-9.529004	2.638081	-1.478765	10.126487	0.176741	28.413957	2.711458	0.000000	-1.060825	-1.291150	10.546211	-1.970058	-1.717230	11.205349	-1.742829	-3.139302	11.205349	-1.212417	-3.139302	9.227934	-0.985082	-2.632913	8.568796	-0.606155	-1.999992	7.909658	-7.577366	-14.605749	58.654859	0.000000	0.000000	9.436684	18.404897	-44.865389	-20.133209	-54.894690	-114.866587	149.736835	59.829993	-5.932620	10.902216	115.009624	48.300226	147.082137	0.035537	0.522164	-69.944178	-24.723582
4.950000	-4.829606	13.978588	86.472560	0.182062	0.826388	0.558145	-8.406873	-2.084276	16.098346	11.929765	0.208214	31.532430	-14.518492	0.000000	-9.667640	2.680717	-1.136040	10.144313	0.177052	28.385535	2.328001	0.000000	-1.069012	-1.270816	10.651233	-1.985262	-1.690185	11.316935	-1.756279	-3.089861	11.316935	-1.221773	-3.089861	9.319829	-0.992684	-2.591447	8.654127	-0.610833	-1.968493	7.988425	-7.635843	-14.375721	59.238961	0.000000	0.000000	9.122423	18.285094	-44.867108	-21.232942	-54.986846	-116.194988	149.749726	59.595480	-5.518181	10.512721	114.810842	48.260293	146.804220	0.035462	0.524071	-69.944287	-24.724011
4.966667	-4.795290	14.128265	86.510661	0.181796	0.826609	0.558326	-8.565694	-2.075338	15.895597	11.922743	0.208091	31.472027	-14.458501	0.000000	-9.825973	2.683932	-0.803577	10.166596	0.177441	28.354044	1.992252	0.000000	-1.071901	-1.233684	10.789787	-1.990628	-1.640800	11.464149	-1.761027	-2.999580	11.464149	-1.225076	-2.999580	9.441064	-0.995368	-2.515729	8.766702	-0.612484	-1.910977	8.092341	-7.656485	-13.955684	60.009561	0.000000	0.000000	8.699353	18.117027	-44.869060	-22.797293	-54.934726	-118.041677	149.759784	59.248284	-5.077899	10.128444	114.521405	48.252783	146.391990	0.035387	0.526488	-69.944410	-24.724658
4.983333	-4.677849	14.320750	86.531569	0.181289	0.826958	0.558486	-8.781961	-2.003745	15.670171	11.900091	0.207696	31.371753	-14.364397	0.000000	-10.045257	2.623632	-0.476015	10.169332	0.177488	28.314388	1.655951	0.000000	-1.069008	-1.171233	10.972253	-1.985254	-1.557740	11.658018	-1.756273	-2.847736	11.658018	-1.221769	-2.847736	9.600721	-0.992681	-2.388378	8.914955	-0.610831	-1.814240	8.229189	-7.635815	-13.249221	61.024377	0.000000	0.000000	8.149943	17.858595	-44.871237	-24.948308	-54.686480	-120.562918	149.766103	58.645662	-4.670219	9.811719	114.140525	48.297020	145.792498	0.035317	0.529343	-69.944550	-24.725570
5.000000	-4.514142	14.531798	86.572017	0.180574	0.827393	0.558575	-9.042404	-1.897449	15.401265	11.838741	0.206625	31.247504	-14.224881	0.000000	-10.297321	2.525740	-0.109931	10.149952	0.177150	28.253558	1.300758	0.000000	-1.061316	-1.091597	11.184871	-1.970971	-1.451824	11.883925	-1.743637	-2.654109	11.883925	-1.212978	-2.654109	9.786762	-0.985538	-2.225985	9.087708	-0.606436	-1.690884	8.388653	-7.580877	-12.348366	62.206896	0.000000	0.000000	7.533080	17.533398	-44.873501	-27.529760	-54.218388	-123.637604	149.769402	57.872096	-4.276505	9.566723	113.698673	48.393932	145.029504	0.035252	0.532709	-69.944709	-24.726886
5.016667	-4.274003	14.779502	86.588344	0.179741	0.827906	0.558654	-9.332826	-1.726296	15.118184	11.798790	0.205928	31.138220	-14.020714	0.000000	-10.599050	2.363768	0.229655	10.118412	0.176600	28.200448	0.949895	0.000000	-1.051307	-0.994895	11.411537	-1.952383	-1.323210	12.124758	-1.727193	-2.418988	12.124758	-1.201539	-2.418988	9.985095	-0.976244	-2.028790	9.271873	-0.600717	-1.541092	8.558652	-7.509384	-11.254452	63.467543	0.000000	0.000000	6.867469	17.138578	-44.875732	-30.322033	-53.683233	-127.018500	149.771651	56.983919	-3.934975	9.496281	113.227033	48.514192	144.211347	0.035177	0.534748	-69.944883	-24.728259
5.033333	-3.968499	15.057710	86.643114	0.178755	0.828495	0.558584	-9.717949	-1.489489	14.859750	11.656865	0.203451	30.970693	-13.860800	0.000000	-10.935711	2.113728	0.323034	10.102789	0.176327	28.256141	1.002114	0.000000	-1.041230	-0.884599	11.644079	-1.933669	-1.176517	12.371834	-1.710638	-2.150815	12.371834	-1.190022	-2.150815	10.188569	-0.966887	-1.803875	9.460814	-0.594959	-1.370245	8.733059	-7.437405	-10.006766	64.760872	0.000000	0.000000	6.201789	16.692382	-44.877992	-33.403437	-53.071575	-130.737269	149.771026	56.013576	-3.710338	9.372510	112.748475	48.672940	143.289732	0.035110	0.537350	-69.945062	-24.729956
5.050000	-3.617770	15.323979	86.715757	0.177646	0.829097	0.558346	-10.120738	-1.207730	14.612073	11.474299	0.200264	30.785020	-13.704645	0.000000	-11.290292	1.828211	0.560848	10.046565	0.175346	28.269998	0.867620	0.000000	-1.024191	-0.763374	11.891165	-1.902026	-1.015288	12.634363	-1.682644	-1.856068	12.634363	-1.170548	-1.856068	10.404770	-0.951064	-1.556673	9.661572	-0.585223	-1.182467	8.918374	-7.315696	-8.635443	66.135095	0.000000	0.000000	5.524201	16.207213	-44.880207	-36.702750	-52.261541	-134.775543	149.769559	54.893194	-3.555210	9.266494	112.260143	48.872048	142.259549	0.035053	0.539568	-69.945221	-24.731491
